<svg width="1080" height="1080" viewBox="0 0 1080 1080" fill="none" xmlns="http://www.w3.org/2000/svg">
<g clip-path="url(#clip0_700_1741)">
<rect width="1080" height="1080" fill="#0EDD82"/>
<g clip-path="url(#clip1_700_1741)">
<path d="M680.953 427.657C680.953 429.166 681.031 430.674 681.19 432.175C680.335 460.484 670.975 487.879 654.329 510.792C647.942 519.592 640.57 527.633 632.356 534.759C606.593 557.057 573.659 569.33 539.585 569.33C505.512 569.33 472.578 557.057 446.814 534.759C455.054 527.637 462.451 519.596 468.861 510.792C484.24 523.897 502.955 532.477 522.921 535.576C542.888 538.675 563.322 536.172 581.95 528.345C600.579 520.519 616.669 507.677 628.431 491.247C640.193 474.818 647.165 455.447 648.57 435.291C648.738 432.79 648.826 430.26 648.836 427.701C648.846 425.141 648.757 422.611 648.57 420.111C647.355 402.352 641.786 385.165 632.356 370.067C622.545 354.303 608.878 341.299 592.647 332.283C576.415 323.267 558.153 318.535 539.585 318.535C521.018 318.535 502.756 323.267 486.524 332.283C470.293 341.299 456.626 354.303 446.814 370.067C437.415 385.158 431.868 402.328 430.66 420.067C430.483 422.562 430.394 425.102 430.394 427.642C430.394 430.182 430.483 432.721 430.66 435.217C429.275 449.14 424.123 462.423 415.756 473.637C407.39 484.852 396.125 493.575 383.174 498.868C370.222 504.162 356.073 505.826 342.246 503.682C328.42 501.538 315.439 495.666 304.699 486.699C293.959 477.731 285.865 466.007 281.288 452.785C276.711 439.563 275.823 425.344 278.72 411.656C281.618 397.967 288.19 385.327 297.732 375.093C307.273 364.86 319.423 357.42 332.875 353.573C335.35 352.874 337.954 352.759 340.481 353.236C343.008 353.713 345.39 354.769 347.44 356.322C349.49 357.874 351.153 359.88 352.297 362.183C353.442 364.486 354.037 367.023 354.036 369.594V369.772C354.032 373.414 352.842 376.956 350.647 379.862C348.452 382.769 345.37 384.882 341.868 385.882C332.032 388.755 323.524 395.005 317.841 403.532C312.158 412.059 309.664 422.317 310.798 432.502C311.932 442.686 316.621 452.145 324.041 459.213C331.461 466.281 341.136 470.506 351.363 471.144C362.632 471.815 373.733 468.159 382.397 460.922C391.061 453.685 396.635 443.413 397.981 432.205C398.301 429.196 398.301 426.162 397.981 423.153C398.842 394.854 408.202 367.47 424.842 344.565C431.229 335.765 438.601 327.724 446.814 320.599C472.578 298.3 505.512 286.027 539.585 286.027C573.659 286.027 606.593 298.3 632.356 320.599C648.99 335.014 662.047 353.096 670.499 373.419C677.056 389.235 680.679 406.113 681.19 423.227C681.035 424.698 680.956 426.177 680.953 427.657Z" fill="#FFFFFE"/>
<path d="M616.836 420.079C614.949 401.07 606.063 383.44 591.903 370.617C577.744 357.793 559.323 350.692 540.22 350.692C521.117 350.692 502.696 357.793 488.536 370.617C474.377 383.44 465.49 401.07 463.603 420.079C463.771 422.58 463.859 425.11 463.869 427.669C463.879 430.229 463.79 432.759 463.603 435.259C462.396 452.993 456.849 470.158 447.449 485.244C437.734 500.894 424.217 513.832 408.157 522.853C392.097 531.874 374.016 536.686 355.596 536.84C337.177 536.993 319.018 532.485 302.809 523.733C286.601 514.981 272.87 502.271 262.895 486.785C252.92 471.299 247.025 453.542 245.759 435.165C244.493 416.788 247.896 398.39 255.653 381.683C263.41 364.975 275.267 350.502 290.122 339.609C304.977 328.717 322.346 321.76 340.613 319.386C344.506 318.857 348.076 316.935 350.661 313.976C353.246 311.016 354.67 307.22 354.67 303.29C354.672 300.983 354.182 298.702 353.233 296.598C352.284 294.495 350.898 292.618 349.167 291.093C347.436 289.567 345.4 288.428 343.194 287.75C340.988 287.073 338.663 286.874 336.375 287.165C311.719 290.383 288.345 300.035 268.603 315.15C248.86 330.265 233.444 350.311 223.905 373.273C214.365 396.235 211.038 421.303 214.258 445.958C217.478 470.613 227.132 493.986 242.249 513.728C257.365 533.469 277.412 548.883 300.375 558.421C323.337 567.959 348.406 571.284 373.061 568.062C397.715 564.84 421.088 555.184 440.828 540.066C460.568 524.948 475.981 504.9 485.517 481.936C495.808 492.298 508.832 499.518 523.072 502.757C537.311 505.995 552.178 505.117 565.937 500.225C579.696 495.333 591.78 486.629 600.78 475.129C609.779 463.628 615.322 449.806 616.762 435.274C616.605 432.764 616.526 430.224 616.526 427.655C616.526 425.085 616.63 422.56 616.836 420.079ZM541.645 471.186C532.913 471.475 524.297 469.13 516.915 464.457C509.533 459.784 503.728 452.999 500.253 444.983C496.779 436.967 495.795 428.091 497.431 419.509C499.067 410.928 503.247 403.036 509.426 396.861C515.606 390.685 523.501 386.511 532.084 384.881C540.667 383.252 549.542 384.241 557.555 387.721C565.568 391.202 572.35 397.012 577.017 404.397C581.685 411.782 584.024 420.4 583.73 429.131C583.361 440.177 578.806 450.669 570.988 458.481C563.171 466.293 552.676 470.84 541.63 471.201L541.645 471.186Z" fill="#FFFFFE"/>
<path d="M802.114 426.549C802.361 443.453 797.041 459.969 786.972 473.55C776.903 487.13 762.646 497.021 746.399 501.696C743.911 502.4 741.294 502.516 738.753 502.037C736.213 501.558 733.818 500.496 731.757 498.934C729.696 497.373 728.025 495.355 726.876 493.039C725.728 490.722 725.132 488.171 725.135 485.586C725.154 481.936 726.358 478.392 728.566 475.486C730.774 472.58 733.866 470.471 737.377 469.475C747.419 466.547 756.071 460.101 761.751 451.318C767.431 442.535 769.76 432.001 768.312 421.641C766.864 411.282 761.735 401.79 753.864 394.901C745.993 388.013 735.905 384.187 725.446 384.124C722.753 384.105 720.064 384.332 717.413 384.804L716.408 384.996C707.246 386.817 698.899 391.501 692.569 398.372C686.24 405.243 682.255 413.946 681.19 423.226C680.67 406.137 677.048 389.285 670.499 373.492C681.18 362.738 694.797 355.375 709.645 352.327C724.492 349.279 739.909 350.681 753.963 356.357C768.017 362.034 780.083 371.732 788.649 384.237C797.214 396.742 801.898 411.497 802.114 426.652V426.549Z" fill="#FFFFFE"/>
<path d="M866.805 427.655C866.79 462.057 854.266 495.281 831.567 521.132C808.867 546.983 777.542 563.697 743.43 568.159C741.141 568.45 738.816 568.251 736.61 567.574C734.404 566.896 732.368 565.757 730.637 564.231C728.906 562.706 727.52 560.829 726.571 558.725C725.622 556.622 725.132 554.341 725.134 552.034C725.134 548.104 726.558 544.308 729.143 541.348C731.728 538.389 735.298 536.467 739.192 535.938C756.044 533.753 772.153 527.664 786.238 518.157C800.323 508.65 811.994 495.986 820.323 481.174C828.651 466.362 833.408 449.81 834.213 432.836C835.019 415.862 831.852 398.934 824.963 383.4C818.074 367.866 807.655 354.154 794.534 343.355C781.413 332.557 765.952 324.97 749.383 321.199C732.814 317.428 715.593 317.576 699.091 321.632C682.589 325.688 667.261 333.54 654.328 344.563C647.941 335.763 640.569 327.722 632.355 320.597C652.882 302.817 678.086 291.311 704.966 287.449C731.846 283.586 759.27 287.529 783.972 298.809C808.675 310.089 829.615 328.231 844.3 351.074C858.986 373.917 866.797 400.498 866.805 427.655Z" fill="#FFFFFE"/>
<path d="M409.498 753.479C409.523 758.817 408.458 764.103 406.368 769.014C404.373 773.777 401.503 778.125 397.907 781.831C394.284 785.517 389.988 788.475 385.252 790.544C380.361 792.712 375.067 793.819 369.717 793.792H311.596C309.855 793.817 308.126 793.487 306.517 792.822C304.907 792.157 303.45 791.17 302.234 789.923C301.001 788.71 300.021 787.263 299.352 785.667C298.683 784.071 298.339 782.358 298.339 780.628C298.339 778.897 298.683 777.184 299.352 775.588C300.021 773.992 301.001 772.546 302.234 771.332C303.45 770.085 304.907 769.099 306.517 768.434C308.126 767.768 309.855 767.438 311.596 767.463H369.289C371.118 767.485 372.931 767.129 374.616 766.417C376.3 765.706 377.82 764.654 379.079 763.329C380.398 762.05 381.442 760.516 382.148 758.82C382.854 757.124 383.207 755.302 383.184 753.465C383.22 751.595 382.875 749.738 382.169 748.007C381.463 746.275 380.412 744.706 379.079 743.394C377.82 742.068 376.3 741.017 374.616 740.305C372.931 739.594 371.118 739.238 369.289 739.259H341.868C336.445 739.296 331.072 738.221 326.082 736.099C316.394 732.023 308.687 724.316 304.612 714.629C302.527 709.624 301.453 704.257 301.453 698.836C301.453 693.415 302.527 688.047 304.612 683.043C306.64 678.246 309.573 673.884 313.25 670.196C316.927 666.527 321.247 663.564 325.994 661.454C330.928 659.26 336.275 658.147 341.676 658.191H368.447C370.189 658.167 371.917 658.497 373.526 659.162C375.136 659.827 376.593 660.813 377.809 662.06C379.045 663.272 380.026 664.718 380.696 666.315C381.366 667.911 381.711 669.624 381.711 671.355C381.711 673.086 381.366 674.8 380.696 676.396C380.026 677.992 379.045 679.438 377.809 680.651C376.597 681.908 375.142 682.905 373.533 683.583C371.924 684.261 370.194 684.604 368.447 684.593H341.543C337.867 684.686 334.375 686.225 331.826 688.876C329.255 691.566 327.82 695.144 327.82 698.865C327.82 702.587 329.255 706.165 331.826 708.855C333.09 710.205 334.624 711.274 336.329 711.992C338.034 712.709 339.871 713.059 341.72 713.019H369.097C374.53 712.985 379.909 714.097 384.883 716.282C389.667 718.366 394.024 721.32 397.73 724.995C401.405 728.667 404.338 733.014 406.368 737.797C408.471 742.756 409.536 748.093 409.498 753.479Z" fill="#FFFFFE"/>
<path d="M478.562 659.492C493.71 657.001 509.255 659.715 522.663 667.192C536.071 674.668 546.551 686.465 552.395 700.661C558.442 715.638 558.965 732.277 553.872 747.604C551.589 754.348 548.288 760.702 544.082 766.446C537.326 775.611 528.339 782.895 517.974 787.607C507.716 792.419 496.412 794.572 485.104 793.868C479.216 793.451 473.411 792.249 467.842 790.294C456.763 786.431 446.842 779.827 439.003 771.098C435.058 766.728 431.73 761.839 429.109 756.567C426.591 751.402 424.716 745.947 423.527 740.324C422.335 734.757 421.873 729.058 422.154 723.372C422.435 717.664 423.386 712.009 424.989 706.523C426.599 700.993 428.975 695.714 432.048 690.841C433.089 688.922 434.285 687.09 435.621 685.363H435.828C440.911 678.46 447.354 672.671 454.759 668.352C462.114 664.028 470.17 661.029 478.562 659.492ZM524.043 749.819C529.941 741.177 532.42 730.652 530.998 720.286C530.287 715.482 528.717 710.845 526.362 706.597C523.586 701.584 519.871 697.152 515.42 693.544C510.987 689.928 505.807 687.341 500.254 685.968C494.776 684.426 489.033 684.069 483.406 684.92C477.714 685.741 472.26 687.754 467.399 690.827C461.126 694.839 456.03 700.444 452.632 707.07C449.152 713.668 447.548 721.094 447.996 728.54C448.235 734.275 449.748 739.884 452.426 744.961C453.124 746.221 453.789 747.52 454.419 748.859C455.061 750.211 455.801 751.514 456.634 752.758C455.374 750.651 454.183 748.475 453.06 746.231C455.31 750.304 458.23 753.968 461.699 757.069C465.213 760.228 469.199 762.818 473.512 764.748C477.968 766.706 482.751 767.813 487.614 768.011C492.471 768.234 497.327 767.558 501.938 766.018C506.404 764.627 510.603 762.49 514.356 759.698C518.093 756.937 521.359 753.591 524.029 749.79L524.043 749.819Z" fill="#FFFFFE"/>
<path d="M671.414 753.479C671.415 758.822 670.325 764.108 668.209 769.014C666.214 773.777 663.344 778.125 659.748 781.831C656.126 785.518 651.83 788.475 647.093 790.544C642.203 792.712 636.908 793.819 631.559 793.792H573.511C571.77 793.817 570.041 793.487 568.432 792.822C566.822 792.157 565.365 791.17 564.149 789.923C562.916 788.71 561.936 787.263 561.267 785.667C560.598 784.071 560.254 782.358 560.254 780.628C560.254 778.897 560.598 777.184 561.267 775.588C561.936 773.992 562.916 772.546 564.149 771.332C565.365 770.085 566.822 769.099 568.432 768.434C570.041 767.768 571.77 767.438 573.511 767.463H631.204C633.033 767.485 634.846 767.129 636.531 766.417C638.215 765.706 639.735 764.654 640.995 763.329C642.313 762.05 643.358 760.516 644.063 758.82C644.769 757.124 645.122 755.302 645.1 753.465C645.135 751.595 644.79 749.738 644.084 748.007C643.378 746.275 642.327 744.706 640.995 743.394C639.735 742.068 638.215 741.017 636.531 740.305C634.846 739.594 633.033 739.238 631.204 739.259H603.827C598.404 739.296 593.032 738.221 588.042 736.099C578.354 732.023 570.647 724.316 566.571 714.629C564.486 709.624 563.413 704.257 563.413 698.836C563.413 693.415 564.486 688.047 566.571 683.043C568.599 678.246 571.532 673.884 575.209 670.196C578.887 666.527 583.206 663.564 587.953 661.454C592.888 659.26 598.235 658.147 603.635 658.191H630.377C632.119 658.167 633.847 658.497 635.456 659.162C637.066 659.827 638.523 660.813 639.739 662.06C640.975 663.272 641.956 664.718 642.626 666.315C643.296 667.911 643.641 669.624 643.641 671.355C643.641 673.086 643.296 674.8 642.626 676.396C641.956 677.992 640.975 679.438 639.739 680.651C638.516 681.9 637.051 682.887 635.434 683.552C633.817 684.217 632.081 684.546 630.333 684.52H603.458C599.782 684.612 596.29 686.151 593.741 688.802C591.17 691.492 589.735 695.07 589.735 698.791C589.735 702.513 591.17 706.091 593.741 708.781C595.005 710.132 596.539 711.2 598.244 711.918C599.949 712.635 601.786 712.985 603.635 712.945H631.012C636.445 712.911 641.824 714.023 646.798 716.209C651.583 718.292 655.939 721.246 659.645 724.921C663.297 728.609 666.205 732.966 668.209 737.753C670.343 742.72 671.434 748.073 671.414 753.479Z" fill="#FFFFFE"/>
<path d="M782.576 771.584C783.803 772.811 784.771 774.272 785.423 775.88C786.075 777.488 786.397 779.211 786.371 780.946C786.387 782.664 786.06 784.369 785.409 785.96C784.759 787.551 783.798 788.996 782.583 790.211C781.368 791.426 779.922 792.387 778.331 793.038C776.74 793.688 775.036 794.015 773.317 793.999H757.724C748.708 794.048 739.782 792.218 731.513 788.624C723.486 785.171 716.178 780.243 709.969 774.094C703.777 767.927 698.812 760.641 695.335 752.624C691.765 744.31 689.924 735.357 689.924 726.31C689.924 717.262 691.765 708.309 695.335 699.996C698.811 691.978 703.777 684.692 709.969 678.525C716.172 672.35 723.48 667.396 731.513 663.921C739.782 660.328 748.708 658.497 757.724 658.546H773.303C775.021 658.53 776.726 658.857 778.317 659.507C779.907 660.158 781.353 661.119 782.568 662.334C783.783 663.549 784.744 664.995 785.395 666.585C786.045 668.176 786.372 669.881 786.356 671.6C786.383 673.335 786.061 675.058 785.409 676.666C784.757 678.274 783.789 679.735 782.561 680.962C781.375 682.22 779.938 683.217 778.344 683.889C776.749 684.56 775.032 684.891 773.303 684.86H757.724C752.185 684.817 746.699 685.928 741.614 688.123C736.722 690.246 732.263 693.249 728.456 696.983C724.641 700.741 721.6 705.211 719.508 710.14C717.331 715.195 716.22 720.644 716.245 726.147C716.221 731.609 717.288 737.021 719.386 742.065C721.483 747.109 724.567 751.683 728.456 755.518C732.26 759.255 736.721 762.258 741.614 764.378C746.698 766.576 752.185 767.688 757.724 767.641H773.303C775.038 767.615 776.759 767.952 778.357 768.631C779.954 769.31 781.391 770.316 782.576 771.584Z" fill="#FFFFFE"/>
</g>
</g>
<defs>
<clipPath id="clip0_700_1741">
<rect width="1080" height="1080" fill="white"/>
</clipPath>
<clipPath id="clip1_700_1741">
<rect width="653.805" height="508" fill="white" transform="translate(213 286)"/>
</clipPath>
</defs>
</svg>
